<svg xmlns="http://www.w3.org/2000/svg" width="230" height="48" fill="none" viewBox="0 0 230 48"><path fill="#fff" d="M227.33 5.24c-.43.34-1 .43-1.77.43-1.57 0-3.87-1.34-4.92-2.82l1.1-.8a9 9 0 0 0 5.6 2.95zm-9.32 28.77-1.29.77c0-11.14 0-21.56-.1-28.96l1.4-1.05c.13 11.42.04 21.5 0 29.24m4.4-33.69c-2.96 2.15-6.02 4.3-9.08 6.36v8.79l-2.3-.05V18l2.3-.1v17.16c0 4.69-.1 8.9-.48 12.24l3.4-1.3c.33-2.48.57-5.54.52-8.12l2.82-1.86.19-18.16 3.06.14.14-2.96-3.2.2.1-7.8a7 7 0 0 0 3.91 1.05c1.91 0 4.11-1.62 5.79-3.92v-.43A11 11 0 0 1 222.4.32m-15.44 34.31L204.5 32V17.96a63 63 0 0 1-4.78-2.87l1.05-.77a87 87 0 0 0 5.02 3.01c-.1 4.73-.1 8.75-.1 14.15l2.2 2.2zm-6.02-1.72-2.48-1.9V18.33l2.48 1.77zm-2.15 1.82-3.15-2.53c0-4.69-.1-9.32-.2-14l1.4-1.01v14.48l3 2.3zm10.13-2.15-1.67-1.77c-.05-3.78-.05-7.6.1-11.47l1.86-1.39V15.9l-.77-.76-1.53 1.14a94 94 0 0 1-5.73-3.53 147 147 0 0 1-9.18 6.5q.23 6.95.15 13.9l-.38.81c2.05 1.44 4.2 2.97 6.06 4.45 1.58-1.25 3.2-2.58 4.78-3.63 1.39 1.19 2.68 2.58 3.87 3.77a202 202 0 0 1 4.54-4.44v-2.06l-.8-.76zm-22.12 2.05L184.32 32V17.96a63 63 0 0 1-4.78-2.87l1.06-.77a83 83 0 0 0 5.01 3.01c-.1 4.73-.1 8.75-.1 14.15l2.2 2.2zm-6.02-1.72-2.49-1.9V18.33l2.49 1.77zm-2.15 1.82-3.16-2.53c0-4.69-.1-9.32-.19-14l1.39-1.01v14.48l3 2.3zm10.13-2.15-1.68-1.77c-.04-3.78-.04-7.6.1-11.47l1.86-1.39V15.9l-.76-.76-1.53 1.14a93 93 0 0 1-5.73-3.53 150 150 0 0 1-9.18 6.5q.21 6.95.14 13.9l-.38.81a131 131 0 0 1 6.07 4.45c1.58-1.25 3.2-2.58 4.78-3.63 1.38 1.19 2.67 2.58 3.87 3.77 1.53-1.53 3.01-3 4.54-4.44v-2.06l-.81-.76zm-25.8 1.91-2.06-1.72V16.95l-1.44-1.53 1.1-.81 1.58 1.86v15.77l1.77 1.34zm4.3-20.07 1.66 1.96-.95.71-1.72-1.96zM165 32.48l-1.24-.95q-.06-6.97 0-14l3.3 3.48 5.3-3.77v-2.06l-.71-.86-1.53 1.15-2.39-2.77-4.11 2.96-2.48-2.91c-2.2 1.57-4.4 3.1-6.7 4.68l1 1.38 1.25-.9.67.9c.1 4.54.2 9.28.1 13.82l-.82 1.1a142 142 0 0 1 5.88 4.68c1.67-1.68 3.44-3.35 5.21-5.02v-2.05l-.77-.72zm-11.84 6.45c0 .53 0 .86-.2 1.44l-.52.28v-.8c0-3.93-3.54-4.26-3.54-9.33V17.96a120 120 0 0 1-4.68-2.73l1.1-.9q2.34 1.5 4.82 3V30.2c0 4.68 3.02 4.97 3.02 8.74m-7.7-5.97L142.94 31V18.53l2.53 1.34zm-2.25 1.82-3.1-2.58c0-4.45 0-9.56-.2-13.91l1.4-1v14.43l3 2.3zm1.87 9.17a5.3 5.3 0 0 0-4.54-1.96v-.14a3.5 3.5 0 0 1 1.96-.48 4.4 4.4 0 0 1 3.87 2zm6.64-24.6 1.82-1.4V15.9l-.67-.76-1.53 1.14a92 92 0 0 1-5.64-3.53c-3 2.2-6.36 4.49-9.46 6.6.43 4.34.48 9.26.38 13.75l-.33.86 6.11 4.45 4.35-3.1c.58 2.52 3.35 3.05 3.35 4.72 0 1-.53 1.63-.91 1.96-.33.24-.72.38-1.2.57a5.9 5.9 0 0 0-5.2-2.67c-3.97 0-5.88 2.91-6.5 5.83a11 11 0 0 1 2.24-.24c1.58 0 3.73.72 4.97 2.39 1.15-.62 2.1-1 4.11-1.72 4.4-1.67 7.07-3.16 7.07-6.64v-.43c0-4.11-2.96-4.97-2.96-8.51zM132 22.1a88 88 0 0 0-3.59-6.6l1.15-.8q1.93 3.36 3.73 6.73zm-5.4 2.73v-6.07a64 64 0 0 1 2.3 4.78zm.9 8.89-1 .85-2.77-2.62c.1-3.73 0-9.18-.29-12.95l1.53-1.15v13.71zm-7.4-13.91a130 130 0 0 1 .24 12.8l-.39.87 5.98 4.97 7.02-5.64V30.8l-.81-.96-3.4 2.87-2.14-2V27.7l8.17-4.63V21a182 182 0 0 0-4.54-8.26 175 175 0 0 1-10.13 7.07m-5.6 14.67-1.95-1.58V6.82c0-1.91-.38-3.01-1.2-3.78l.96-.76c1 .9 1.38 2.2 1.38 4.54v25.61l1.82 1.25zm2.16-1.96-1.3-.96V6.06c0-2.63-.66-4.26-2.43-5.4l-5.35 3.67c1 .91 1.48 1.82 1.48 3.59v24.56l-.72 1.2 5.93 4.78 4.97-4.88v-2.05l-.72-.77zM104.47 22.1a88 88 0 0 0-3.58-6.6l1.15-.8q1.94 3.36 3.72 6.73zm-5.4 2.73v-6.07q1.22 2.28 2.3 4.78zm.91 8.89-1 .85-2.77-2.62c.1-3.73 0-9.18-.3-12.95l1.54-1.15v13.71zm-7.4-13.91a127 127 0 0 1 .23 12.8l-.38.87 5.97 4.97 7.03-5.64V30.8l-.81-.96-3.4 2.87-2.15-2V27.7l8.18-4.63V21c-1.44-2.77-2.92-5.5-4.55-8.26a175 175 0 0 1-10.13 7.07M77.75 4.96c-2.44-.96-4.59-1.72-6.98-1.72-2.34 0-4.01.52-5.2 1.29l-.15-.15c.72-1.1 3.06-2.67 6.02-2.67 2.54 0 4.73.81 6.93 1.72 2.3.95 4.5 1.96 7.22 1.96 1.43 0 2.67-.29 3.73-1.1l.14.19A4.3 4.3 0 0 1 85.36 7c-2.58 0-5.02-1.05-7.6-2.05m7.55 25.28.1.24c-1.39 1.57-3.97 3.24-7.98 3.24-7.36 0-12.76-5.1-12.76-12.37 0-4.2 1.96-7.98 4.63-10.18l.24.19q-.5.64-1 1.43l-.1.2a15.3 15.3 0 0 0-2.15 7.69c0 7.02 5.64 11.56 11.8 11.56 3.11 0 5.4-.76 7.22-2m-12.85-1.68c-2.49-1.67-4.11-4.54-4.11-8.17 0-2 .28-3.87.95-5.59 1.24-.38 2.54-.76 3.83-1.24.14 4.49-.3 10.94-.67 15m6.26-9.7c0 3.3-.58 5.98-2.3 7.65.53-4.78.53-9.6.53-14.34.57-.24 1.15-.43 1.77-.67zm1.57-8.7q1.14.23 2.2.24.3 9.7 0 19.31a14 14 0 0 1-4.25.62q-1.95-.01-3.68-.67c4.1-1.62 5.78-4.2 5.78-10.9 0-2.57.05-5.92-.05-8.6M74.27 8.3c.48.2.96.34 1.48.53q1.15.41 2.3.76c-2.49.96-4.92 1.82-7.41 2.58q1.34-2.07 3.63-3.87m13.43.57.72-.47a8.6 8.6 0 0 0 3.53-6.84l-.62-.28c-.9 1.38-2.77 2.48-5.2 2.48s-4.69-.86-6.94-1.72C76.95 1.14 74.7.23 72.27.23c-7.5 0-10.52 4.87-10.52 8.36a8 8 0 0 0 1.15 4.3l1.91-1.15a4 4 0 0 1-.53-2.1c0-1.53 1.73-2.77 4.02-2.77 1.24 0 2.48.28 3.87.71-6.3 3.25-11.42 8.99-11.42 16.5 0 8.69 6.83 14.38 14.38 14.38 8.03-.05 12.9-5.4 14.67-11.19a23 23 0 0 0 1.06-6.2l-.72-.1c-1.1 2.96-2.54 5.63-4.92 7.35-.24-5.54-.24-11.66 0-18.25a9 9 0 0 0 2.48-1.2M49.52 22.11a88 88 0 0 0-3.58-6.6l1.14-.8a235 235 0 0 1 3.73 6.73zm-5.4 2.73v-6.07q1.22 2.28 2.3 4.78zm.9 8.89-1 .85-2.77-2.62c.1-3.73 0-9.18-.29-12.95l1.53-1.15v13.71zm-7.4-13.91a130 130 0 0 1 .24 12.8l-.38.87 5.97 4.97 7.03-5.64V30.8l-.82-.96-3.39 2.87-2.15-2V27.7l8.17-4.63V21c-1.43-2.77-2.91-5.5-4.54-8.26a175 175 0 0 1-10.13 7.07M32.6 14.8C27.97 8.06 20.56 3.57 13.82 3.57c-4.35 0-8.5 2.58-8.5 6.6 0 .62.19 1.05.28 1.43l-.28.05a4.7 4.7 0 0 1-.77-2.68c.05-3.82 4.2-6.93 9.27-6.93 7.98 0 15.2 4.83 19.07 12.62zm-13.62.96.29-.15c2.05 2.97 3.78 5.07 3.78 7.84a4.3 4.3 0 0 1-4.16 4.44l-.1-.14c2.25-.86 2.82-2.2 2.82-4.44 0-2.49-1.58-5.55-2.63-7.55m7.12 16.39c-3.15-.34-5.83-1.15-8.36-1.91 3.87-.67 7.12-3.35 7.12-6.74 0-6.4-7.6-9.94-7.31-15.05 6.21 2 13.81 8.45 13.81 15.81 0 3.97-1.15 6.79-5.26 7.89m-2.53 2.67c-5.4 0-8.84-2.53-15.91-2.53-1.05 0-2.1.14-2.77.29l-.05-.15c1.1-1.05 2.82-1.62 5.25-1.62 5.7 0 9.56 2.82 15.68 2.82.72 0 1.62-.1 2.15-.2l.05.2a8 8 0 0 1-4.4 1.2M13.87.22C7.04.23 1.68 4.3 1.68 9.4c0 4.5 2.78 7.46 7.7 9.37l2.2-1.91a6.8 6.8 0 0 1-4.07-4.69c.72-3.15 3.35-4.4 6.4-4.4.44 0 .92.05 1.35.1A7 7 0 0 0 14 12.03c0 4.4 3.73 6.64 3.73 12 0 .61-.1 1.19-.24 2.05-.57.24-.95.28-1.29.28-2.15 0-3.34-1.62-3.34-3.48 0-1.92.52-3.01 1.29-3.64l-1.05-.85c-2.06 1.81-3.4 3.44-3.4 6.3 0 1.68.77 3.2 1.96 4.26q-.65-.06-1.38-.05C3.93 28.9-.41 32.39.1 38.46l.38.14a6.1 6.1 0 0 1 4.92-2.1c5.3 0 10.66 2.2 14.53 2.2a15.5 15.5 0 0 0 11.85-5.55 17.6 17.6 0 0 0 3.92-11.42C35.7 9.59 25.95.23 13.86.23"/></svg>